<mxfile host="app.diagrams.net" modified="2024-03-26T14:21:32.383Z" agent="Mozilla/5.0 (Windows NT 10.0; Win64; x64) AppleWebKit/537.36 (KHTML, like Gecko) Chrome/121.0.0.0 Safari/537.36 OPR/107.0.0.0" etag="42xdRxQPGWmMEzbebAcY" version="24.1.0" type="device">
  <diagram name="Page-1" id="DeJB2czDSN_dIi8B3RCe">
    <mxGraphModel dx="1393" dy="2004" grid="1" gridSize="10" guides="1" tooltips="1" connect="1" arrows="1" fold="1" page="1" pageScale="1" pageWidth="827" pageHeight="1169" math="0" shadow="0">
      <root>
        <mxCell id="0" />
        <mxCell id="1" parent="0" />
        <mxCell id="GwU9TqXV4x6sd4GeaGwo-1" value="Start" style="ellipse;whiteSpace=wrap;html=1;fillColor=#d5e8d4;strokeColor=#82b366;" parent="1" vertex="1">
          <mxGeometry x="50" y="-250" width="120" height="80" as="geometry" />
        </mxCell>
        <mxCell id="GwU9TqXV4x6sd4GeaGwo-2" value="End" style="ellipse;whiteSpace=wrap;html=1;fillColor=#f8cecc;strokeColor=#b85450;" parent="1" vertex="1">
          <mxGeometry x="230" y="-250" width="120" height="80" as="geometry" />
        </mxCell>
        <mxCell id="GwU9TqXV4x6sd4GeaGwo-3" value="Input" style="shape=parallelogram;perimeter=parallelogramPerimeter;whiteSpace=wrap;html=1;fixedSize=1;fillColor=#fff2cc;strokeColor=#d6b656;" parent="1" vertex="1">
          <mxGeometry x="50" y="-130" width="120" height="61" as="geometry" />
        </mxCell>
        <mxCell id="GwU9TqXV4x6sd4GeaGwo-4" value="Output" style="shape=parallelogram;perimeter=parallelogramPerimeter;whiteSpace=wrap;html=1;fixedSize=1;fillColor=#dae8fc;strokeColor=#6c8ebf;" parent="1" vertex="1">
          <mxGeometry x="230" y="-130" width="120" height="60" as="geometry" />
        </mxCell>
        <mxCell id="GwU9TqXV4x6sd4GeaGwo-5" value="Proccesing" style="rounded=0;whiteSpace=wrap;html=1;fillColor=#b0e3e6;strokeColor=#0e8088;" parent="1" vertex="1">
          <mxGeometry x="50" y="-30" width="120" height="60" as="geometry" />
        </mxCell>
        <mxCell id="GwU9TqXV4x6sd4GeaGwo-6" value="Decision (Selection)" style="rhombus;whiteSpace=wrap;html=1;fillColor=#d0cee2;strokeColor=#56517e;" parent="1" vertex="1">
          <mxGeometry x="70" y="60" width="80" height="80" as="geometry" />
        </mxCell>
        <mxCell id="GwU9TqXV4x6sd4GeaGwo-7" value="Decision (Loop)" style="rhombus;whiteSpace=wrap;html=1;fillColor=#cdeb8b;strokeColor=#36393d;" parent="1" vertex="1">
          <mxGeometry x="250" y="60" width="80" height="80" as="geometry" />
        </mxCell>
        <mxCell id="GwU9TqXV4x6sd4GeaGwo-8" value="" style="endArrow=classic;html=1;rounded=0;" parent="1" edge="1">
          <mxGeometry width="50" height="50" relative="1" as="geometry">
            <mxPoint x="230" y="10" as="sourcePoint" />
            <mxPoint x="320" y="10" as="targetPoint" />
          </mxGeometry>
        </mxCell>
        <mxCell id="GwU9TqXV4x6sd4GeaGwo-9" value="Connector" style="edgeLabel;html=1;align=center;verticalAlign=middle;resizable=0;points=[];" parent="GwU9TqXV4x6sd4GeaGwo-8" connectable="0" vertex="1">
          <mxGeometry x="-0.6889" y="4" relative="1" as="geometry">
            <mxPoint x="26" y="-6" as="offset" />
          </mxGeometry>
        </mxCell>
        <mxCell id="GwU9TqXV4x6sd4GeaGwo-10" value="&lt;font style=&quot;font-size: 20px;&quot;&gt;&lt;u&gt;Flowchart Key:&lt;/u&gt;&lt;/font&gt;" style="text;html=1;align=center;verticalAlign=middle;resizable=0;points=[];autosize=1;strokeColor=none;fillColor=none;" parent="1" vertex="1">
          <mxGeometry x="120" y="-290" width="160" height="40" as="geometry" />
        </mxCell>
        <mxCell id="GwU9TqXV4x6sd4GeaGwo-11" value="Procedure / Function" style="shape=process;whiteSpace=wrap;html=1;backgroundOutline=1;fillColor=#bac8d3;strokeColor=#23445d;" parent="1" vertex="1">
          <mxGeometry x="50" y="170" width="120" height="60" as="geometry" />
        </mxCell>
        <mxCell id="KE83tORIBBEMfqk5LqUf-84" style="edgeStyle=orthogonalEdgeStyle;rounded=0;orthogonalLoop=1;jettySize=auto;html=1;" edge="1" parent="1" source="KE83tORIBBEMfqk5LqUf-1" target="KE83tORIBBEMfqk5LqUf-6">
          <mxGeometry relative="1" as="geometry" />
        </mxCell>
        <mxCell id="KE83tORIBBEMfqk5LqUf-1" value="Start" style="ellipse;whiteSpace=wrap;html=1;fillColor=#d5e8d4;strokeColor=#82b366;" vertex="1" parent="1">
          <mxGeometry x="765" y="-260" width="120" height="80" as="geometry" />
        </mxCell>
        <mxCell id="KE83tORIBBEMfqk5LqUf-6" value="Main" style="shape=process;whiteSpace=wrap;html=1;backgroundOutline=1;fillColor=#bac8d3;strokeColor=#23445d;" vertex="1" parent="1">
          <mxGeometry x="765" y="-160" width="120" height="60" as="geometry" />
        </mxCell>
        <mxCell id="KE83tORIBBEMfqk5LqUf-7" value="" style="rounded=0;whiteSpace=wrap;html=1;" vertex="1" parent="1">
          <mxGeometry x="380" y="-260" width="170" height="520" as="geometry" />
        </mxCell>
        <mxCell id="KE83tORIBBEMfqk5LqUf-8" value="" style="rounded=0;whiteSpace=wrap;html=1;" vertex="1" parent="1">
          <mxGeometry x="910" y="-260" width="410" height="580" as="geometry" />
        </mxCell>
        <mxCell id="KE83tORIBBEMfqk5LqUf-9" value="Area of rectangle" style="text;html=1;align=center;verticalAlign=middle;whiteSpace=wrap;rounded=0;" vertex="1" parent="1">
          <mxGeometry x="390" y="-250" width="150" height="30" as="geometry" />
        </mxCell>
        <mxCell id="KE83tORIBBEMfqk5LqUf-19" style="edgeStyle=orthogonalEdgeStyle;rounded=0;orthogonalLoop=1;jettySize=auto;html=1;exitX=0.5;exitY=1;exitDx=0;exitDy=0;entryX=0.5;entryY=0;entryDx=0;entryDy=0;" edge="1" parent="1" source="KE83tORIBBEMfqk5LqUf-10" target="KE83tORIBBEMfqk5LqUf-14">
          <mxGeometry relative="1" as="geometry" />
        </mxCell>
        <mxCell id="KE83tORIBBEMfqk5LqUf-10" value="Enter length number" style="shape=parallelogram;perimeter=parallelogramPerimeter;whiteSpace=wrap;html=1;fixedSize=1;fillColor=#fff2cc;strokeColor=#d6b656;" vertex="1" parent="1">
          <mxGeometry x="404" y="-201" width="120" height="61" as="geometry" />
        </mxCell>
        <mxCell id="KE83tORIBBEMfqk5LqUf-20" style="edgeStyle=orthogonalEdgeStyle;rounded=0;orthogonalLoop=1;jettySize=auto;html=1;exitX=0.5;exitY=1;exitDx=0;exitDy=0;" edge="1" parent="1" source="KE83tORIBBEMfqk5LqUf-14" target="KE83tORIBBEMfqk5LqUf-15">
          <mxGeometry relative="1" as="geometry" />
        </mxCell>
        <mxCell id="KE83tORIBBEMfqk5LqUf-14" value="Enter Width Number" style="shape=parallelogram;perimeter=parallelogramPerimeter;whiteSpace=wrap;html=1;fixedSize=1;fillColor=#fff2cc;strokeColor=#d6b656;" vertex="1" parent="1">
          <mxGeometry x="404" y="-110" width="120" height="61" as="geometry" />
        </mxCell>
        <mxCell id="KE83tORIBBEMfqk5LqUf-17" value="no" style="edgeStyle=orthogonalEdgeStyle;rounded=0;orthogonalLoop=1;jettySize=auto;html=1;entryX=0.5;entryY=0;entryDx=0;entryDy=0;" edge="1" parent="1" source="KE83tORIBBEMfqk5LqUf-15" target="KE83tORIBBEMfqk5LqUf-10">
          <mxGeometry relative="1" as="geometry">
            <Array as="points">
              <mxPoint x="544" y="20" />
              <mxPoint x="544" y="-221" />
              <mxPoint x="464" y="-221" />
            </Array>
          </mxGeometry>
        </mxCell>
        <mxCell id="KE83tORIBBEMfqk5LqUf-22" value="yes" style="edgeStyle=orthogonalEdgeStyle;rounded=0;orthogonalLoop=1;jettySize=auto;html=1;" edge="1" parent="1" source="KE83tORIBBEMfqk5LqUf-15" target="KE83tORIBBEMfqk5LqUf-16">
          <mxGeometry relative="1" as="geometry" />
        </mxCell>
        <mxCell id="KE83tORIBBEMfqk5LqUf-15" value="is length and width a positive number?" style="rhombus;whiteSpace=wrap;html=1;fillColor=#cdeb8b;strokeColor=#36393d;" vertex="1" parent="1">
          <mxGeometry x="424" y="-20" width="80" height="80" as="geometry" />
        </mxCell>
        <mxCell id="KE83tORIBBEMfqk5LqUf-23" style="edgeStyle=orthogonalEdgeStyle;rounded=0;orthogonalLoop=1;jettySize=auto;html=1;" edge="1" parent="1" source="KE83tORIBBEMfqk5LqUf-16" target="KE83tORIBBEMfqk5LqUf-21">
          <mxGeometry relative="1" as="geometry" />
        </mxCell>
        <mxCell id="KE83tORIBBEMfqk5LqUf-16" value="area = length * width" style="rounded=0;whiteSpace=wrap;html=1;fillColor=#b0e3e6;strokeColor=#0e8088;" vertex="1" parent="1">
          <mxGeometry x="405" y="90" width="120" height="60" as="geometry" />
        </mxCell>
        <mxCell id="KE83tORIBBEMfqk5LqUf-21" value="return area" style="shape=parallelogram;perimeter=parallelogramPerimeter;whiteSpace=wrap;html=1;fixedSize=1;fillColor=#dae8fc;strokeColor=#6c8ebf;" vertex="1" parent="1">
          <mxGeometry x="404" y="180" width="120" height="60" as="geometry" />
        </mxCell>
        <mxCell id="KE83tORIBBEMfqk5LqUf-31" value="" style="rounded=0;whiteSpace=wrap;html=1;" vertex="1" parent="1">
          <mxGeometry x="190" y="150" width="170" height="410" as="geometry" />
        </mxCell>
        <mxCell id="KE83tORIBBEMfqk5LqUf-32" value="Calculate standard cost" style="text;html=1;align=center;verticalAlign=middle;whiteSpace=wrap;rounded=0;" vertex="1" parent="1">
          <mxGeometry x="200" y="160" width="150" height="30" as="geometry" />
        </mxCell>
        <mxCell id="KE83tORIBBEMfqk5LqUf-33" style="edgeStyle=orthogonalEdgeStyle;rounded=0;orthogonalLoop=1;jettySize=auto;html=1;" edge="1" parent="1" source="KE83tORIBBEMfqk5LqUf-34" target="KE83tORIBBEMfqk5LqUf-36">
          <mxGeometry relative="1" as="geometry" />
        </mxCell>
        <mxCell id="KE83tORIBBEMfqk5LqUf-34" value="standard = 22.50" style="rounded=0;whiteSpace=wrap;html=1;fillColor=#b0e3e6;strokeColor=#0e8088;" vertex="1" parent="1">
          <mxGeometry x="215" y="280" width="120" height="60" as="geometry" />
        </mxCell>
        <mxCell id="KE83tORIBBEMfqk5LqUf-35" style="edgeStyle=orthogonalEdgeStyle;rounded=0;orthogonalLoop=1;jettySize=auto;html=1;" edge="1" parent="1" source="KE83tORIBBEMfqk5LqUf-36" target="KE83tORIBBEMfqk5LqUf-37">
          <mxGeometry relative="1" as="geometry" />
        </mxCell>
        <mxCell id="KE83tORIBBEMfqk5LqUf-36" value="cost = basic * area" style="rounded=0;whiteSpace=wrap;html=1;fillColor=#b0e3e6;strokeColor=#0e8088;" vertex="1" parent="1">
          <mxGeometry x="215" y="361" width="120" height="60" as="geometry" />
        </mxCell>
        <mxCell id="KE83tORIBBEMfqk5LqUf-37" value="The total cost for your area is cost" style="shape=parallelogram;perimeter=parallelogramPerimeter;whiteSpace=wrap;html=1;fixedSize=1;fillColor=#dae8fc;strokeColor=#6c8ebf;" vertex="1" parent="1">
          <mxGeometry x="215" y="441" width="120" height="60" as="geometry" />
        </mxCell>
        <mxCell id="KE83tORIBBEMfqk5LqUf-45" value="Main" style="text;html=1;align=center;verticalAlign=middle;whiteSpace=wrap;rounded=0;" vertex="1" parent="1">
          <mxGeometry x="920" y="-250" width="330" height="30" as="geometry" />
        </mxCell>
        <mxCell id="KE83tORIBBEMfqk5LqUf-81" style="edgeStyle=orthogonalEdgeStyle;rounded=0;orthogonalLoop=1;jettySize=auto;html=1;" edge="1" parent="1" source="KE83tORIBBEMfqk5LqUf-46" target="KE83tORIBBEMfqk5LqUf-47">
          <mxGeometry relative="1" as="geometry" />
        </mxCell>
        <mxCell id="KE83tORIBBEMfqk5LqUf-86" style="edgeStyle=orthogonalEdgeStyle;rounded=0;orthogonalLoop=1;jettySize=auto;html=1;entryX=1;entryY=0.5;entryDx=0;entryDy=0;" edge="1" parent="1" source="KE83tORIBBEMfqk5LqUf-46" target="KE83tORIBBEMfqk5LqUf-85">
          <mxGeometry relative="1" as="geometry">
            <Array as="points">
              <mxPoint x="1310" y="-180" />
              <mxPoint x="1310" y="260" />
            </Array>
          </mxGeometry>
        </mxCell>
        <mxCell id="KE83tORIBBEMfqk5LqUf-46" value="While True" style="rhombus;whiteSpace=wrap;html=1;fillColor=#cdeb8b;strokeColor=#36393d;" vertex="1" parent="1">
          <mxGeometry x="940" y="-221" width="80" height="80" as="geometry" />
        </mxCell>
        <mxCell id="KE83tORIBBEMfqk5LqUf-82" style="edgeStyle=orthogonalEdgeStyle;rounded=0;orthogonalLoop=1;jettySize=auto;html=1;" edge="1" parent="1" source="KE83tORIBBEMfqk5LqUf-47" target="KE83tORIBBEMfqk5LqUf-49">
          <mxGeometry relative="1" as="geometry" />
        </mxCell>
        <mxCell id="KE83tORIBBEMfqk5LqUf-47" value="1.) Basic, 2.) Standard, 3.) Luxury" style="shape=parallelogram;perimeter=parallelogramPerimeter;whiteSpace=wrap;html=1;fixedSize=1;fillColor=#dae8fc;strokeColor=#6c8ebf;" vertex="1" parent="1">
          <mxGeometry x="920" y="-120" width="120" height="60" as="geometry" />
        </mxCell>
        <mxCell id="KE83tORIBBEMfqk5LqUf-83" style="edgeStyle=orthogonalEdgeStyle;rounded=0;orthogonalLoop=1;jettySize=auto;html=1;entryX=0.5;entryY=0;entryDx=0;entryDy=0;" edge="1" parent="1" source="KE83tORIBBEMfqk5LqUf-49" target="KE83tORIBBEMfqk5LqUf-50">
          <mxGeometry relative="1" as="geometry" />
        </mxCell>
        <mxCell id="KE83tORIBBEMfqk5LqUf-49" value="What is your choice?" style="shape=parallelogram;perimeter=parallelogramPerimeter;whiteSpace=wrap;html=1;fixedSize=1;fillColor=#fff2cc;strokeColor=#d6b656;" vertex="1" parent="1">
          <mxGeometry x="920" y="-40" width="120" height="61" as="geometry" />
        </mxCell>
        <mxCell id="KE83tORIBBEMfqk5LqUf-73" value="no" style="edgeStyle=orthogonalEdgeStyle;rounded=0;orthogonalLoop=1;jettySize=auto;html=1;" edge="1" parent="1" source="KE83tORIBBEMfqk5LqUf-50" target="KE83tORIBBEMfqk5LqUf-51">
          <mxGeometry relative="1" as="geometry" />
        </mxCell>
        <mxCell id="KE83tORIBBEMfqk5LqUf-78" value="Yes" style="edgeStyle=orthogonalEdgeStyle;rounded=0;orthogonalLoop=1;jettySize=auto;html=1;" edge="1" parent="1" source="KE83tORIBBEMfqk5LqUf-50" target="KE83tORIBBEMfqk5LqUf-76">
          <mxGeometry relative="1" as="geometry" />
        </mxCell>
        <mxCell id="KE83tORIBBEMfqk5LqUf-50" value="is choice 1" style="rhombus;whiteSpace=wrap;html=1;fillColor=#d0cee2;strokeColor=#56517e;" vertex="1" parent="1">
          <mxGeometry x="930" y="40" width="80" height="80" as="geometry" />
        </mxCell>
        <mxCell id="KE83tORIBBEMfqk5LqUf-74" value="no" style="edgeStyle=orthogonalEdgeStyle;rounded=0;orthogonalLoop=1;jettySize=auto;html=1;" edge="1" parent="1" source="KE83tORIBBEMfqk5LqUf-51" target="KE83tORIBBEMfqk5LqUf-52">
          <mxGeometry relative="1" as="geometry" />
        </mxCell>
        <mxCell id="KE83tORIBBEMfqk5LqUf-79" value="Yes" style="edgeStyle=orthogonalEdgeStyle;rounded=0;orthogonalLoop=1;jettySize=auto;html=1;" edge="1" parent="1" source="KE83tORIBBEMfqk5LqUf-51" target="KE83tORIBBEMfqk5LqUf-75">
          <mxGeometry relative="1" as="geometry" />
        </mxCell>
        <mxCell id="KE83tORIBBEMfqk5LqUf-51" value="is choice 2" style="rhombus;whiteSpace=wrap;html=1;fillColor=#d0cee2;strokeColor=#56517e;" vertex="1" parent="1">
          <mxGeometry x="1075" y="40" width="80" height="80" as="geometry" />
        </mxCell>
        <mxCell id="KE83tORIBBEMfqk5LqUf-80" value="Yes" style="edgeStyle=orthogonalEdgeStyle;rounded=0;orthogonalLoop=1;jettySize=auto;html=1;" edge="1" parent="1" source="KE83tORIBBEMfqk5LqUf-52" target="KE83tORIBBEMfqk5LqUf-77">
          <mxGeometry relative="1" as="geometry" />
        </mxCell>
        <mxCell id="KE83tORIBBEMfqk5LqUf-52" value="is choice 3" style="rhombus;whiteSpace=wrap;html=1;fillColor=#d0cee2;strokeColor=#56517e;" vertex="1" parent="1">
          <mxGeometry x="1210" y="40" width="80" height="80" as="geometry" />
        </mxCell>
        <mxCell id="KE83tORIBBEMfqk5LqUf-54" style="edgeStyle=orthogonalEdgeStyle;rounded=0;orthogonalLoop=1;jettySize=auto;html=1;" edge="1" parent="1" source="KE83tORIBBEMfqk5LqUf-53" target="KE83tORIBBEMfqk5LqUf-34">
          <mxGeometry relative="1" as="geometry" />
        </mxCell>
        <mxCell id="KE83tORIBBEMfqk5LqUf-53" value="Area of rectangle" style="shape=process;whiteSpace=wrap;html=1;backgroundOutline=1;fillColor=#bac8d3;strokeColor=#23445d;" vertex="1" parent="1">
          <mxGeometry x="215" y="200" width="120" height="60" as="geometry" />
        </mxCell>
        <mxCell id="KE83tORIBBEMfqk5LqUf-55" value="" style="rounded=0;whiteSpace=wrap;html=1;" vertex="1" parent="1">
          <mxGeometry x="570" y="-260" width="170" height="410" as="geometry" />
        </mxCell>
        <mxCell id="KE83tORIBBEMfqk5LqUf-56" value="Calculate basic cost" style="text;html=1;align=center;verticalAlign=middle;whiteSpace=wrap;rounded=0;" vertex="1" parent="1">
          <mxGeometry x="580" y="-250" width="150" height="30" as="geometry" />
        </mxCell>
        <mxCell id="KE83tORIBBEMfqk5LqUf-57" style="edgeStyle=orthogonalEdgeStyle;rounded=0;orthogonalLoop=1;jettySize=auto;html=1;" edge="1" parent="1" source="KE83tORIBBEMfqk5LqUf-58" target="KE83tORIBBEMfqk5LqUf-60">
          <mxGeometry relative="1" as="geometry" />
        </mxCell>
        <mxCell id="KE83tORIBBEMfqk5LqUf-58" value="basic = 10.25" style="rounded=0;whiteSpace=wrap;html=1;fillColor=#b0e3e6;strokeColor=#0e8088;" vertex="1" parent="1">
          <mxGeometry x="595" y="-130" width="120" height="60" as="geometry" />
        </mxCell>
        <mxCell id="KE83tORIBBEMfqk5LqUf-59" style="edgeStyle=orthogonalEdgeStyle;rounded=0;orthogonalLoop=1;jettySize=auto;html=1;" edge="1" parent="1" source="KE83tORIBBEMfqk5LqUf-60" target="KE83tORIBBEMfqk5LqUf-61">
          <mxGeometry relative="1" as="geometry" />
        </mxCell>
        <mxCell id="KE83tORIBBEMfqk5LqUf-60" value="cost = basic * area" style="rounded=0;whiteSpace=wrap;html=1;fillColor=#b0e3e6;strokeColor=#0e8088;" vertex="1" parent="1">
          <mxGeometry x="595" y="-49" width="120" height="60" as="geometry" />
        </mxCell>
        <mxCell id="KE83tORIBBEMfqk5LqUf-61" value="The total cost for your area is cost" style="shape=parallelogram;perimeter=parallelogramPerimeter;whiteSpace=wrap;html=1;fixedSize=1;fillColor=#dae8fc;strokeColor=#6c8ebf;" vertex="1" parent="1">
          <mxGeometry x="595" y="31" width="120" height="60" as="geometry" />
        </mxCell>
        <mxCell id="KE83tORIBBEMfqk5LqUf-62" style="edgeStyle=orthogonalEdgeStyle;rounded=0;orthogonalLoop=1;jettySize=auto;html=1;" edge="1" parent="1" source="KE83tORIBBEMfqk5LqUf-63" target="KE83tORIBBEMfqk5LqUf-58">
          <mxGeometry relative="1" as="geometry" />
        </mxCell>
        <mxCell id="KE83tORIBBEMfqk5LqUf-63" value="Area of rectangle" style="shape=process;whiteSpace=wrap;html=1;backgroundOutline=1;fillColor=#bac8d3;strokeColor=#23445d;" vertex="1" parent="1">
          <mxGeometry x="595" y="-210" width="120" height="60" as="geometry" />
        </mxCell>
        <mxCell id="KE83tORIBBEMfqk5LqUf-64" value="" style="rounded=0;whiteSpace=wrap;html=1;" vertex="1" parent="1">
          <mxGeometry x="750" y="-80" width="150" height="370" as="geometry" />
        </mxCell>
        <mxCell id="KE83tORIBBEMfqk5LqUf-65" value="calculate luxury cost" style="text;html=1;align=center;verticalAlign=middle;whiteSpace=wrap;rounded=0;" vertex="1" parent="1">
          <mxGeometry x="750" y="-70" width="150" height="30" as="geometry" />
        </mxCell>
        <mxCell id="KE83tORIBBEMfqk5LqUf-66" style="edgeStyle=orthogonalEdgeStyle;rounded=0;orthogonalLoop=1;jettySize=auto;html=1;" edge="1" parent="1" source="KE83tORIBBEMfqk5LqUf-67" target="KE83tORIBBEMfqk5LqUf-69">
          <mxGeometry relative="1" as="geometry" />
        </mxCell>
        <mxCell id="KE83tORIBBEMfqk5LqUf-67" value="luxury = 32.25" style="rounded=0;whiteSpace=wrap;html=1;fillColor=#b0e3e6;strokeColor=#0e8088;" vertex="1" parent="1">
          <mxGeometry x="765" y="50" width="120" height="60" as="geometry" />
        </mxCell>
        <mxCell id="KE83tORIBBEMfqk5LqUf-68" style="edgeStyle=orthogonalEdgeStyle;rounded=0;orthogonalLoop=1;jettySize=auto;html=1;" edge="1" parent="1" source="KE83tORIBBEMfqk5LqUf-69" target="KE83tORIBBEMfqk5LqUf-70">
          <mxGeometry relative="1" as="geometry" />
        </mxCell>
        <mxCell id="KE83tORIBBEMfqk5LqUf-69" value="cost = basic * area" style="rounded=0;whiteSpace=wrap;html=1;fillColor=#b0e3e6;strokeColor=#0e8088;" vertex="1" parent="1">
          <mxGeometry x="765" y="131" width="120" height="60" as="geometry" />
        </mxCell>
        <mxCell id="KE83tORIBBEMfqk5LqUf-70" value="The total cost for your area is cost" style="shape=parallelogram;perimeter=parallelogramPerimeter;whiteSpace=wrap;html=1;fixedSize=1;fillColor=#dae8fc;strokeColor=#6c8ebf;" vertex="1" parent="1">
          <mxGeometry x="765" y="211" width="120" height="60" as="geometry" />
        </mxCell>
        <mxCell id="KE83tORIBBEMfqk5LqUf-71" style="edgeStyle=orthogonalEdgeStyle;rounded=0;orthogonalLoop=1;jettySize=auto;html=1;" edge="1" parent="1" source="KE83tORIBBEMfqk5LqUf-72" target="KE83tORIBBEMfqk5LqUf-67">
          <mxGeometry relative="1" as="geometry" />
        </mxCell>
        <mxCell id="KE83tORIBBEMfqk5LqUf-72" value="Area of rectangle" style="shape=process;whiteSpace=wrap;html=1;backgroundOutline=1;fillColor=#bac8d3;strokeColor=#23445d;" vertex="1" parent="1">
          <mxGeometry x="765" y="-30" width="120" height="60" as="geometry" />
        </mxCell>
        <mxCell id="KE83tORIBBEMfqk5LqUf-75" value="Calculate standard cost" style="shape=process;whiteSpace=wrap;html=1;backgroundOutline=1;fillColor=#bac8d3;strokeColor=#23445d;" vertex="1" parent="1">
          <mxGeometry x="1055" y="140" width="120" height="60" as="geometry" />
        </mxCell>
        <mxCell id="KE83tORIBBEMfqk5LqUf-76" value="Calculate basic cost" style="shape=process;whiteSpace=wrap;html=1;backgroundOutline=1;fillColor=#bac8d3;strokeColor=#23445d;" vertex="1" parent="1">
          <mxGeometry x="920" y="140" width="120" height="60" as="geometry" />
        </mxCell>
        <mxCell id="KE83tORIBBEMfqk5LqUf-77" value="calculate luxury cost" style="shape=process;whiteSpace=wrap;html=1;backgroundOutline=1;fillColor=#bac8d3;strokeColor=#23445d;" vertex="1" parent="1">
          <mxGeometry x="1190" y="140" width="120" height="60" as="geometry" />
        </mxCell>
        <mxCell id="KE83tORIBBEMfqk5LqUf-85" value="False" style="ellipse;whiteSpace=wrap;html=1;fillColor=#f8cecc;strokeColor=#b85450;" vertex="1" parent="1">
          <mxGeometry x="920" y="220" width="120" height="80" as="geometry" />
        </mxCell>
      </root>
    </mxGraphModel>
  </diagram>
</mxfile>
